<svg xmlns="http://www.w3.org/2000/svg" viewBox="0 0 32 32" aria-hidden="true">
  <rect width="32" height="32" rx="6" fill="#111"/>
  <!-- Shopping cart - white, centered (~20x20 area) -->
  <g fill="none" stroke="#ffffff" stroke-width="1.6" stroke-linecap="round" stroke-linejoin="round">
    <path d="M8 12h14l1.2 6a1.5 1.5 0 0 1-1.5 1.5h-11a1.5 1.5 0 0 1-1.5-1.5L8 12z"/>
    <path d="M10 12V9a1 1 0 0 1 1-1h2a1 1 0 0 1 1 1v3"/>
    <path d="M22 12V9a1 1 0 0 0-1-1h-2a1 1 0 0 0-1 1v3"/>
  </g>
</svg>
